<?xml version="1.0" encoding="UTF-8"?>
<svg width="559px" height="271px" viewBox="0 0 559 271" version="1.1" xmlns="http://www.w3.org/2000/svg" xmlns:xlink="http://www.w3.org/1999/xlink">
    <!-- Generator: Sketch 49.3 (51167) - http://www.bohemiancoding.com/sketch -->
    <title>Group</title>
    <desc>Created with Sketch.</desc>
    <defs></defs>
    <g id="Page-1" stroke="none" stroke-width="1" fill="none" fill-rule="evenodd">
        <g id="Group" transform="translate(0.000000, -1.000000)" fill-rule="nonzero">
            <path d="M242.767008,271.424774 L526.963862,0.999456196 L558.72887,227.01923 L242.767008,271.424774 Z M508.309357,187.213887 L508.464829,187.192037 L496.656966,103.174724 C496.330216,100.727684 494.655328,98.6722354 492.324681,97.8580761 C489.994035,97.0439167 487.403594,97.6093677 485.624217,99.3206782 L379.901124,199.855891 C377.806932,201.81604 377.223818,204.906943 378.459901,207.495365 C379.695983,210.083786 382.46641,211.57323 385.307285,211.176672 L502.682769,194.680623 C506.286355,194.152119 508.794609,190.823553 508.309357,187.213887 Z" id="Path_1505" fill="#8B51C6"></path>
            <path d="M172.23963,157.339725 L172.242411,157.338218 C175.124691,200.006477 146.196127,238.302009 104.365229,247.193794 C62.5343315,256.085578 20.5302017,232.867855 5.8079025,192.71637 C-8.91439669,152.564885 8.12511587,107.697696 45.7889427,87.4412413 C83.4527696,67.1847862 130.279845,77.7030841 155.662696,112.121084 L269.252216,71.466534 L266.310384,63.070068 L289.798599,54.705572 L311.838084,116.14451 L288.349695,124.508021 L285.518875,116.739985 L172.23963,157.339725 Z" id="Path_1506" fill="#000000"></path>
        </g>
    </g>
</svg>