<svg id="Layer_1" data-name="Layer 1" xmlns="http://www.w3.org/2000/svg" viewBox="0 0 780 397"><defs><style>.cls-1{fill:#231f20;}.cls-2{fill:#8b51c6;}</style></defs><title>Forsideillustrasjoner</title><path class="cls-1" d="M446.41,7.35,285,77.92,178.14,56.73l2-10.09-30.31-6-15.71,79.26,30.3,6L166.58,115l105.71,21L395.57,263.8c24,24.9,66.13,12.53,72.86-21.41L487,148.66l18.58-93.72C512.32,21,478.11-6.5,446.41,7.35Z"/><path class="cls-2" d="M86,360.27a151.32,151.32,0,0,0,205-59.82l21.91,11.94,28.32-51.95L31.65,91.68,3.33,143.63l21.91,12A151.31,151.31,0,0,0,86,360.27ZM76.4,183.47,141.49,219l0,.06a18.91,18.91,0,0,0,33.21,18.11.16.16,0,0,0,0-.07l65.09,35.49A93.05,93.05,0,0,1,76.4,183.47Z"/><path class="cls-2" d="M558.21,122.78c21.85-34.31,63.22-45.85,112.85-14.25l102,65L634.54,391l-98-62.43c-49.63-31.61-56.89-70.25-36.6-102.11,14.44-22.67,40.13-32.57,69.85-23.12C544.31,181.1,539.87,151.58,558.21,122.78ZM606,321.57l33.75-53L607.27,247.9c-23.28-14.83-39.77-8.54-49.14,6.16-9.75,15.32-7,32.59,15.39,46.83Zm3.4-160.16c-10.73,16.84-6.61,35.4,15.14,49.25l37.06,23.61L698.08,177l-35.84-22.82C638.65,139.13,619.93,144.86,609.39,161.41Z"/></svg>