<?xml version="1.0" encoding="UTF-8"?>
<svg width="432px" height="327px" viewBox="0 0 432 327" version="1.1" xmlns="http://www.w3.org/2000/svg" xmlns:xlink="http://www.w3.org/1999/xlink">
    <!-- Generator: Sketch 49.3 (51167) - http://www.bohemiancoding.com/sketch -->
    <title>Group</title>
    <desc>Created with Sketch.</desc>
    <defs></defs>
    <g id="Page-1" stroke="none" stroke-width="1" fill="none" fill-rule="evenodd">
        <g id="Group" transform="translate(-1.000000, 0.000000)" fill-rule="nonzero">
            <path d="M185.730538,21.1443512 C233.227274,66.1970223 235.373451,140.735107 190.417876,187.721188 C145.462302,234.707268 70.489773,236.199176 22.8600949,191.196779 C14.2184201,183.017693 6.8418217,173.598312 0.972599062,163.248036 L14.4367769,149.174708 C18.2052603,156.726713 22.9240045,163.765816 28.4781991,170.120749 L36.9531917,161.283849 C27.5321278,150.226381 21.0543665,136.969907 18.1200913,122.742678 C13.47383,100.373549 17.9915862,77.0754711 30.6619606,58.0642311 C43.332335,39.052991 63.0970335,25.9165048 85.5312924,21.5956645 C109.709513,16.8339668 134.773342,22.5347508 154.513401,37.2856896 L162.988394,28.4487896 C156.547525,23.4624554 149.509594,19.2993511 142.037727,16.0559702 L156.574164,0.815898265 C167.25642,6.09322144 177.084961,12.9458919 185.730538,21.1443512 Z M122.868045,202.38385 L122.869465,202.385577 C157.163362,195.656447 185.256193,171.13141 196.553092,138.059781 C207.849991,104.988152 200.632257,68.4014206 177.621971,42.0978226 L169.145151,50.9339092 C178.487117,61.9578674 184.913136,75.1500188 187.834389,89.3015652 C192.478836,111.668662 187.961117,134.964075 175.29243,153.973606 C162.623743,172.983138 142.862016,186.119353 120.430503,190.441983 C96.3222507,195.213381 71.3202098,189.578006 51.590023,174.925574 L43.1150303,183.762474 C65.8168847,201.081213 94.8441519,207.858733 122.868045,202.38385 Z" id="Path_1668" fill="#8B51C6"></path>
            <path d="M410.730857,124.46787 L432.298677,157.310264 L177.775906,326.651337 L156.208086,293.808944 L410.730857,124.46787 Z M409.88074,156.652053 C410.593777,157.814619 411.751498,158.634759 413.084758,158.921808 C414.418019,159.208857 415.810671,158.937808 416.938953,158.171675 C419.29654,156.641979 419.969859,153.49193 418.443657,151.132079 C416.917455,148.772227 413.768407,148.094242 411.406297,149.616946 C409.044188,151.13965 408.361538,154.28769 409.88074,156.652053 Z" id="Path_1669" fill="#000000"></path>
        </g>
    </g>
</svg>